<mxfile host="app.diagrams.net" modified="2021-08-29T15:26:37.995Z" agent="5.0 (Macintosh; Intel Mac OS X 10_14_3) AppleWebKit/537.36 (KHTML, like Gecko) Chrome/92.0.4515.159 Safari/537.36" etag="GAjn616ZpyUJj6vqeBi5" version="15.0.2" type="github">
  <diagram id="kupfX_uMHicoUzC8Druy" name="Page-1">
    <mxGraphModel dx="1480" dy="2820" grid="0" gridSize="10" guides="1" tooltips="1" connect="1" arrows="1" fold="1" page="1" pageScale="1" pageWidth="700" pageHeight="400" background="#EFF1F3" math="0" shadow="0">
      <root>
        <mxCell id="0" />
        <mxCell id="1" parent="0" />
        <mxCell id="x5YhWuJmizib8dUo-EOY-3" value="&lt;font style=&quot;font-size: 28px&quot;&gt;1&lt;/font&gt;" style="rounded=1;whiteSpace=wrap;html=1;fillColor=#67AB9F;" vertex="1" parent="1">
          <mxGeometry x="45" y="-217" width="58" height="54" as="geometry" />
        </mxCell>
        <mxCell id="x5YhWuJmizib8dUo-EOY-4" value="&lt;font style=&quot;font-size: 28px&quot;&gt;2&lt;/font&gt;" style="rounded=1;whiteSpace=wrap;html=1;fillColor=#67AB9F;" vertex="1" parent="1">
          <mxGeometry x="103" y="-217" width="58" height="54" as="geometry" />
        </mxCell>
        <mxCell id="x5YhWuJmizib8dUo-EOY-5" value="&lt;font style=&quot;font-size: 28px&quot;&gt;3&lt;/font&gt;" style="rounded=1;whiteSpace=wrap;html=1;fillColor=#67AB9F;" vertex="1" parent="1">
          <mxGeometry x="161" y="-217" width="58" height="54" as="geometry" />
        </mxCell>
        <mxCell id="x5YhWuJmizib8dUo-EOY-6" value="&lt;font style=&quot;font-size: 28px&quot;&gt;4&lt;/font&gt;" style="rounded=1;whiteSpace=wrap;html=1;fillColor=#67AB9F;" vertex="1" parent="1">
          <mxGeometry x="219" y="-217" width="58" height="54" as="geometry" />
        </mxCell>
        <mxCell id="x5YhWuJmizib8dUo-EOY-7" value="&lt;font style=&quot;font-size: 28px&quot;&gt;5&lt;/font&gt;" style="rounded=1;whiteSpace=wrap;html=1;fillColor=#67AB9F;" vertex="1" parent="1">
          <mxGeometry x="277" y="-217" width="58" height="54" as="geometry" />
        </mxCell>
        <mxCell id="x5YhWuJmizib8dUo-EOY-8" value="&lt;font style=&quot;font-size: 28px&quot;&gt;6&lt;/font&gt;" style="rounded=1;whiteSpace=wrap;html=1;fillColor=#67AB9F;" vertex="1" parent="1">
          <mxGeometry x="335" y="-217" width="58" height="54" as="geometry" />
        </mxCell>
        <mxCell id="x5YhWuJmizib8dUo-EOY-9" value="&lt;font style=&quot;font-size: 28px&quot;&gt;7&lt;/font&gt;" style="rounded=1;whiteSpace=wrap;html=1;fillColor=#67AB9F;" vertex="1" parent="1">
          <mxGeometry x="393" y="-217" width="58" height="54" as="geometry" />
        </mxCell>
        <mxCell id="x5YhWuJmizib8dUo-EOY-10" value="&lt;font style=&quot;font-size: 28px&quot;&gt;8&lt;/font&gt;" style="rounded=1;whiteSpace=wrap;html=1;fillColor=#67AB9F;" vertex="1" parent="1">
          <mxGeometry x="451" y="-217" width="58" height="54" as="geometry" />
        </mxCell>
        <mxCell id="x5YhWuJmizib8dUo-EOY-11" value="&lt;font style=&quot;font-size: 28px&quot;&gt;9&lt;/font&gt;" style="rounded=1;whiteSpace=wrap;html=1;fillColor=#67AB9F;" vertex="1" parent="1">
          <mxGeometry x="509" y="-217" width="58" height="54" as="geometry" />
        </mxCell>
        <mxCell id="x5YhWuJmizib8dUo-EOY-12" value="&lt;font style=&quot;font-size: 28px&quot;&gt;10&lt;/font&gt;" style="rounded=1;whiteSpace=wrap;html=1;fillColor=#67AB9F;" vertex="1" parent="1">
          <mxGeometry x="567" y="-217" width="58" height="54" as="geometry" />
        </mxCell>
        <mxCell id="x5YhWuJmizib8dUo-EOY-13" value="" style="rounded=1;whiteSpace=wrap;html=1;fillColor=#FDD276;opacity=50;strokeWidth=3;" vertex="1" parent="1">
          <mxGeometry x="219.5" y="-224.25" width="289" height="68.5" as="geometry" />
        </mxCell>
        <mxCell id="x5YhWuJmizib8dUo-EOY-14" value="&lt;font style=&quot;font-size: 20px&quot;&gt;win=5&lt;/font&gt;" style="text;html=1;strokeColor=none;fillColor=none;align=center;verticalAlign=middle;whiteSpace=wrap;rounded=0;dashed=1;opacity=80;" vertex="1" parent="1">
          <mxGeometry x="330" y="-139" width="40" height="20" as="geometry" />
        </mxCell>
        <mxCell id="x5YhWuJmizib8dUo-EOY-15" value="" style="endArrow=none;dashed=1;html=1;strokeWidth=2;" edge="1" parent="1">
          <mxGeometry width="50" height="50" relative="1" as="geometry">
            <mxPoint x="219.5" y="-230" as="sourcePoint" />
            <mxPoint x="219.5" y="-313" as="targetPoint" />
          </mxGeometry>
        </mxCell>
        <mxCell id="x5YhWuJmizib8dUo-EOY-16" value="" style="endArrow=none;dashed=1;html=1;strokeWidth=2;" edge="1" parent="1">
          <mxGeometry width="50" height="50" relative="1" as="geometry">
            <mxPoint x="512" y="-226.25" as="sourcePoint" />
            <mxPoint x="512" y="-309.25" as="targetPoint" />
          </mxGeometry>
        </mxCell>
        <mxCell id="x5YhWuJmizib8dUo-EOY-18" value="" style="endArrow=classic;html=1;strokeWidth=5;" edge="1" parent="1">
          <mxGeometry width="50" height="50" relative="1" as="geometry">
            <mxPoint x="219" y="-63" as="sourcePoint" />
            <mxPoint x="219" y="-152" as="targetPoint" />
          </mxGeometry>
        </mxCell>
        <mxCell id="x5YhWuJmizib8dUo-EOY-19" value="" style="endArrow=classic;html=1;strokeWidth=5;" edge="1" parent="1">
          <mxGeometry width="50" height="50" relative="1" as="geometry">
            <mxPoint x="512" y="-66.75" as="sourcePoint" />
            <mxPoint x="512" y="-155.75" as="targetPoint" />
          </mxGeometry>
        </mxCell>
        <mxCell id="x5YhWuJmizib8dUo-EOY-20" value="&lt;font style=&quot;font-size: 20px&quot;&gt;窗口下边界&lt;/font&gt;" style="text;html=1;strokeColor=none;fillColor=none;align=center;verticalAlign=middle;whiteSpace=wrap;rounded=0;opacity=50;" vertex="1" parent="1">
          <mxGeometry x="161" y="-55" width="116" height="43" as="geometry" />
        </mxCell>
        <mxCell id="x5YhWuJmizib8dUo-EOY-21" value="&lt;font style=&quot;font-size: 20px&quot;&gt;窗口上边界&lt;/font&gt;" style="text;html=1;strokeColor=none;fillColor=none;align=center;verticalAlign=middle;whiteSpace=wrap;rounded=0;opacity=50;" vertex="1" parent="1">
          <mxGeometry x="455" y="-57" width="116" height="43" as="geometry" />
        </mxCell>
        <mxCell id="x5YhWuJmizib8dUo-EOY-22" value="&lt;font style=&quot;font-size: 20px&quot;&gt;已接收&lt;br&gt;已确认&lt;br&gt;&lt;/font&gt;" style="text;html=1;strokeColor=none;fillColor=none;align=center;verticalAlign=middle;whiteSpace=wrap;rounded=0;opacity=50;" vertex="1" parent="1">
          <mxGeometry x="74" y="-285" width="116" height="43" as="geometry" />
        </mxCell>
        <mxCell id="x5YhWuJmizib8dUo-EOY-24" value="&lt;font style=&quot;font-size: 20px&quot;&gt;未接收&lt;br&gt;对端可发送&lt;br&gt;&lt;/font&gt;" style="text;html=1;strokeColor=none;fillColor=none;align=center;verticalAlign=middle;whiteSpace=wrap;rounded=0;opacity=50;" vertex="1" parent="1">
          <mxGeometry x="308" y="-285" width="116" height="43" as="geometry" />
        </mxCell>
        <mxCell id="x5YhWuJmizib8dUo-EOY-25" value="&lt;font style=&quot;font-size: 20px&quot;&gt;未接收&lt;br&gt;对端不可发送&lt;br&gt;&lt;/font&gt;" style="text;html=1;strokeColor=none;fillColor=none;align=center;verticalAlign=middle;whiteSpace=wrap;rounded=0;opacity=50;" vertex="1" parent="1">
          <mxGeometry x="535" y="-292" width="130" height="50" as="geometry" />
        </mxCell>
        <mxCell id="x5YhWuJmizib8dUo-EOY-27" value="&lt;font style=&quot;font-size: 35px&quot;&gt;TCP接收窗口&lt;/font&gt;" style="text;html=1;strokeColor=none;fillColor=none;align=center;verticalAlign=middle;whiteSpace=wrap;rounded=0;opacity=50;" vertex="1" parent="1">
          <mxGeometry x="239" y="-370" width="254" height="20" as="geometry" />
        </mxCell>
      </root>
    </mxGraphModel>
  </diagram>
</mxfile>
